<?xml version="1.0" standalone="no"?>
<!DOCTYPE svg PUBLIC "-//W3C//DTD SVG 20010904//EN"
 "http://www.w3.org/TR/2001/REC-SVG-20010904/DTD/svg10.dtd">
<svg version="1.0" xmlns="http://www.w3.org/2000/svg"
 width="514.000000pt" height="514.000000pt" viewBox="0 0 514.000000 514.000000"
 preserveAspectRatio="xMidYMid meet">
<metadata>
Created by potrace 1.14, written by Peter Selinger 2001-2017
</metadata>
<g transform="translate(0.000000,514.000000) scale(0.100000,-0.100000)"
fill="#000000" stroke="none">
<path d="M2555 4556 c-84 -24 -138 -68 -159 -130 -8 -23 -11 -80 -10 -154 3
-126 14 -169 73 -275 15 -29 61 -115 101 -192 40 -77 85 -162 100 -190 15 -27
58 -108 95 -180 37 -71 84 -161 105 -200 20 -38 69 -131 108 -205 39 -74 82
-157 97 -185 15 -27 59 -111 97 -185 239 -461 228 -443 313 -498 31 -20 53
-25 100 -26 114 0 170 51 269 246 38 73 72 138 76 143 4 6 47 87 95 180 48 94
102 197 120 230 18 33 57 107 87 165 30 58 86 164 124 235 38 72 90 171 116
220 26 50 73 140 105 200 58 110 108 207 152 294 38 76 48 123 50 241 2 94 -1
118 -18 153 -23 48 -93 99 -156 116 -58 16 -1986 13 -2040 -3z"/>
<path d="M1652 4535 c-81 -38 -96 -61 -371 -590 -133 -255 -204 -391 -231
-440 -15 -27 -58 -108 -95 -180 -37 -71 -95 -182 -128 -245 -114 -215 -177
-335 -224 -430 l-48 -94 -3 -136 c-4 -122 -2 -141 16 -176 24 -47 50 -70 111
-98 46 -21 50 -21 1048 -23 969 -3 1005 -2 1054 16 67 26 112 62 134 107 22
48 23 259 1 322 -13 36 -173 352 -216 427 -16 28 -42 77 -193 365 -30 58 -76
146 -102 195 -26 50 -74 142 -107 205 -33 63 -75 142 -93 175 -18 33 -70 132
-115 220 -129 246 -146 277 -180 318 -65 78 -169 103 -258 62z"/>
<path d="M798 1780 c-36 -5 -40 -9 -123 -155 -47 -82 -85 -150 -85 -152 0 -1
-13 -25 -30 -53 -16 -27 -28 -51 -27 -51 1 -1 21 -3 45 -4 41 -2 45 1 68 36
13 21 24 42 24 47 0 4 61 8 135 8 l134 0 25 -47 26 -47 54 1 54 1 -25 46 c-14
25 -33 56 -41 69 -39 65 -162 285 -162 291 0 12 -31 16 -72 10z m58 -170 l42
-80 -89 0 c-49 0 -89 2 -89 5 0 2 13 28 28 57 16 29 34 63 41 76 6 12 15 22
19 22 4 0 26 -36 48 -80z"/>
<path d="M1122 1782 c-41 -4 -43 2 49 -155 103 -174 128 -219 140 -243 9 -16
20 -21 47 -20 39 1 32 -7 110 138 22 40 65 118 96 173 l56 100 -28 5 c-57 12
-70 2 -116 -89 -83 -162 -111 -210 -117 -203 -3 4 -21 34 -39 67 -134 246
-123 234 -198 227z"/>
<path d="M2637 1750 c-113 -21 -188 -144 -157 -258 29 -111 150 -172 269 -136
55 16 109 64 86 76 -9 6 -28 0 -55 -17 -76 -48 -167 -38 -224 26 -114 126 17
319 179 264 20 -8 48 -23 61 -36 20 -18 26 -20 39 -9 14 12 13 16 -12 38 -56
48 -115 65 -186 52z"/>
<path d="M4022 1748 c-57 -10 -121 -54 -145 -101 -22 -43 -29 -113 -16 -160
12 -46 73 -113 113 -127 83 -27 178 -13 230 35 24 22 25 27 13 40 -13 13 -17
13 -28 -1 -33 -40 -125 -61 -184 -41 -61 20 -115 94 -115 156 1 46 36 108 77
135 65 43 179 32 218 -21 6 -8 18 -11 28 -7 23 8 22 16 -5 41 -51 46 -115 64
-186 51z"/>
<path d="M4551 1742 c-52 -25 -72 -89 -40 -129 8 -10 29 -31 48 -48 70 -61 80
-72 89 -96 12 -35 4 -57 -28 -74 -34 -18 -72 -7 -99 27 -12 14 -24 19 -35 15
-16 -6 -16 -9 4 -37 12 -17 29 -34 39 -40 58 -31 130 -9 156 47 29 60 10 97
-92 182 -40 32 -53 49 -53 70 0 52 54 69 96 30 16 -15 27 -18 39 -12 15 9 15
12 -7 37 -32 37 -77 48 -117 28z"/>
<path d="M2187 1738 c-8 -5 -12 -66 -12 -192 0 -152 3 -187 14 -191 23 -9 28
10 26 96 -2 102 8 101 89 -7 56 -76 87 -101 108 -88 4 3 3 10 -2 17 -9 11 -20
25 -90 117 -24 32 -28 44 -12 46 114 8 154 133 60 189 -31 18 -158 27 -181 13z
m161 -47 c27 -14 35 -42 22 -75 -12 -33 -40 -44 -105 -42 l-50 1 0 60 c0 33 4
63 9 67 13 9 101 2 124 -11z"/>
<path d="M2928 1742 c-16 -3 -18 -20 -18 -192 0 -162 2 -189 16 -194 9 -3 18
-6 20 -6 2 0 4 43 4 95 0 107 -10 96 90 96 28 0 64 0 80 0 l30 -1 0 -90 c0
-49 2 -90 4 -90 2 0 11 -3 20 -6 13 -5 15 17 15 183 -1 178 -7 222 -30 207 -5
-3 -9 -41 -9 -85 l0 -79 -100 0 -99 0 -3 83 c-3 72 -5 82 -20 79z"/>
<path d="M3279 1742 c-14 -3 -16 -26 -16 -195 0 -181 1 -193 19 -193 10 0 18
5 19 11 3 54 3 369 -1 374 -3 4 -12 5 -21 3z"/>
<path d="M3357 1742 c-9 -2 -17 -11 -17 -21 0 -14 8 -18 40 -16 21 1 41 -3 43
-9 2 -6 3 -85 2 -177 -1 -153 0 -165 17 -166 22 -2 20 -15 22 187 l1 165 40 0
c29 1 41 5 43 18 2 9 -2 18 -10 18 -34 3 -166 4 -181 1z"/>
<path d="M3606 1738 c-9 -5 -12 -56 -12 -195 l1 -187 95 -1 c110 -1 130 2 130
21 0 15 -1 15 -110 18 l-75 1 -1 76 -2 75 89 -1 c67 -1 89 2 89 12 0 7 0 16 0
20 0 4 -35 8 -78 9 -42 0 -83 2 -90 2 -8 2 -11 19 -9 60 l3 57 88 0 c77 0 89
2 92 18 1 9 -2 17 -7 18 -40 5 -193 3 -203 -3z"/>
<path d="M4260 1742 c-6 -2 -6 -10 -1 -21 7 -11 21 -17 43 -17 l33 1 5 -174
c4 -156 7 -174 23 -177 19 -3 19 -7 18 214 0 72 3 132 7 133 4 1 21 2 37 4 45
4 45 4 45 20 0 8 -6 16 -12 16 -34 3 -189 4 -198 1z"/>
<path d="M1910 1688 c-13 -29 -49 -107 -81 -173 -72 -152 -75 -161 -49 -161
15 0 26 16 46 63 23 54 31 63 53 64 111 4 136 3 144 -6 5 -5 21 -34 36 -64 15
-31 33 -55 44 -57 24 -3 22 4 -24 103 -23 49 -51 111 -64 138 -46 104 -67 145
-74 145 -4 0 -18 -24 -31 -52z m64 -97 c14 -32 26 -61 26 -65 0 -3 -27 -6 -60
-6 -33 0 -60 2 -60 5 0 13 54 125 60 125 4 0 19 -26 34 -59z"/>
<path d="M1356 1081 c-2 -3 -3 -17 -2 -31 l1 -25 1265 -2 1265 -3 -1 33 -1 32
-1262 1 c-694 1 -1263 -1 -1265 -5z"/>
</g>
</svg>
